<svg xmlns="http://www.w3.org/2000/svg" width="2560" height="1600" viewBox="0 0 2560 1600">

  <style>

    @supports (-webkit-text-size-adjust:100%) {

      svg {
        animation-name: svg-hue-rotation;
        animation-duration: 15s;
        animation-timing-function: linear;
        animation-iteration-count: infinite;
      }

      @keyframes svg-hue-rotation {
        0%, 100% { filter: hue-rotate(0); }
        50% { filter: hue-rotate(30deg); }
      }

      .svg-ribbon {
        animation-name: svg-ribbon-animation;
        animation-duration: 24s;
        animation-timing-function: linear;
        animation-iteration-count: infinite;
      }

      @keyframes svg-ribbon-animation {
        0%, 100% { transform: scale(0.9, 1) translate(0); }
        50% { transform: scale(1.1, 0.9) translate(-250px, -60px); }
      }

    }

  </style>
  
  <g class="svg-ribbon">
    <polygon points="1953.45 -519.35 942.71 527.65 887.99 277.63 1795.27 -638.94 1953.45 -519.35" fill="#135ce5"/>
    <polygon points="1303.64 1125.36 1040.73 1456.61 313.75 2372.57 134.63 2258.19 643.83 1622.2 643.84 1622.2 643.85 1622.19 1303.64 1125.36" fill="#135ce5"/>
    <polygon points="1908.89 875.93 1841.69 1122.45 1265.08 416.73 1908.89 875.93" fill="#135ce5"/>
    <polygon points="1908.89 875.93 1527.22 738.36 942.71 527.66 942.71 527.65 887.99 277.63 1265.07 416.72 1265.08 416.73 1908.89 875.93" fill="#226bf4"/>
    <polygon points="1908.92 875.86 1908.89 875.93 1841.69 1122.45 1040.73 1456.61 643.85 1622.19 1303.64 1125.36 1303.65 1125.36 1908.84 875.89 1908.92 875.86" fill="#226bf4"/>
  </g>
  
</svg>
